<?xml version="1.0" encoding="UTF-8" standalone="no"?>
<svg width="19px" height="27px" viewBox="0 0 19 27" version="1.1" xmlns="http://www.w3.org/2000/svg" xmlns:xlink="http://www.w3.org/1999/xlink">
    <!-- Generator: Sketch 48.2 (47327) - http://www.bohemiancoding.com/sketch -->
    <title>Group 14</title>
    <desc>Created with Sketch.</desc>
    <defs></defs>
    <g id="Skill-Development-&amp;-Evaluation-(SKIDE)" stroke="none" stroke-width="1" fill="none" fill-rule="evenodd" transform="translate(-831.000000, -597.000000)">
        <g id="Group-14" transform="translate(825.000000, 596.000000)">
            <g id="noun_code_1093266">
                <g id="Group">
                    <g id="Group-5">
                        <g id="Group-10"></g>
                    </g>
                </g>
            </g>
            <g id="noun_app-development_1904398" fill="#FFFFFF" fill-rule="nonzero">
                <g id="Group" transform="translate(6.000000, 1.000000)">
                    <path d="M14.3783784,27 L2.05405405,27 C0.919631325,27 1.38926716e-16,25.9926407 0,24.75 L0,2.25 C-1.38926716e-16,1.00735931 0.919631325,2.28269391e-16 2.05405405,0 L14.3783784,0 C15.5128011,7.6089797e-17 16.4324324,1.00735931 16.4324324,2.25 L16.4324324,7.3125 C16.4324324,7.62316017 16.2025246,7.875 15.9189189,7.875 C15.6353132,7.875 15.4054054,7.62316017 15.4054054,7.3125 L15.4054054,2.25 C15.4054054,1.62867966 14.9455897,1.125 14.3783784,1.125 L2.05405405,1.125 C1.48684269,1.125 1.02702703,1.62867966 1.02702703,2.25 L1.02702703,24.75 C1.02702703,25.3713203 1.48684269,25.875 2.05405405,25.875 L14.3783784,25.875 C14.9455897,25.875 15.4054054,25.3713203 15.4054054,24.75 L15.4054054,19.6875 C15.4054054,19.3768398 15.6353132,19.125 15.9189189,19.125 C16.2025246,19.125 16.4324324,19.3768398 16.4324324,19.6875 L16.4324324,24.75 C16.4324324,25.9926407 15.5128011,27 14.3783784,27 Z" id="Shape"></path>
                    <path d="M13.3513514,4.5 L3.08108108,4.5 C2.7974754,4.5 2.56756757,4.24816017 2.56756757,3.9375 C2.56756757,3.62683983 2.7974754,3.375 3.08108108,3.375 L13.3513514,3.375 C13.634957,3.375 13.8648649,3.62683983 13.8648649,3.9375 C13.8648649,4.24816017 13.634957,4.5 13.3513514,4.5 Z" id="Shape"></path>
                    <path d="M13.3513514,23.625 L3.08108108,23.625 C2.7974754,23.625 2.56756757,23.3731602 2.56756757,23.0625 C2.56756757,22.7518398 2.7974754,22.5 3.08108108,22.5 L13.3513514,22.5 C13.634957,22.5 13.8648649,22.7518398 13.8648649,23.0625 C13.8648649,23.3731602 13.634957,23.625 13.3513514,23.625 Z" id="Shape"></path>
                    <path d="M8.72972973,16.875 C8.59354861,16.8749681 8.46295573,16.815684 8.36667568,16.7101875 L5.79910811,13.8976875 C5.59864171,13.6780313 5.59864171,13.3219687 5.79910811,13.1023125 L8.36667568,10.2898125 C8.56816754,10.0766406 8.88844894,10.0796893 9.08652846,10.2966646 C9.28460798,10.5136398 9.28739113,10.8644744 9.09278378,11.0851875 L6.88827027,13.5 L9.09278378,15.9148125 C9.23960136,16.0756843 9.28351395,16.3175831 9.20405085,16.5277432 C9.12458776,16.7379033 8.93739249,16.8749514 8.72972973,16.875 Z" id="Shape"></path>
                    <path d="M15.9189189,16.875 C15.7112562,16.8749514 15.5240609,16.7379033 15.4445978,16.5277432 C15.3651347,16.3175831 15.4090473,16.0756843 15.5558649,15.9148125 L17.7603784,13.5 L15.5558649,11.0851875 C15.3612575,10.8644744 15.3640407,10.5136398 15.5621202,10.2966646 C15.7601997,10.0796893 16.0804811,10.0766406 16.281973,10.2898125 L18.8495405,13.1023125 C19.0500069,13.3219687 19.0500069,13.6780313 18.8495405,13.8976875 L16.281973,16.7101875 C16.1856929,16.815684 16.0551,16.8749681 15.9189189,16.875 Z" id="Shape"></path>
                    <path d="M10.7837838,16.875 C10.6058821,16.874896 10.4407035,16.7739368 10.3471974,16.6081532 C10.2536913,16.4423695 10.2451806,16.2353826 10.3247027,16.0610625 L12.8922703,10.4360625 C13.019042,10.1580216 13.3275783,10.0451974 13.5814054,10.1840625 C13.8352325,10.3229276 13.9382312,10.6608966 13.8114595,10.9389375 L11.2438919,16.5639375 C11.1568075,16.7548356 10.9786037,16.8753127 10.7837838,16.875 Z" id="Shape"></path>
                </g>
            </g>
        </g>
    </g>
</svg>