<?xml version="1.0" encoding="UTF-8" standalone="no"?>
<svg width="27px" height="21px" viewBox="0 0 27 21" version="1.1" xmlns="http://www.w3.org/2000/svg" xmlns:xlink="http://www.w3.org/1999/xlink">
    <!-- Generator: Sketch 48.2 (47327) - http://www.bohemiancoding.com/sketch -->
    <title>Group 15</title>
    <desc>Created with Sketch.</desc>
    <defs></defs>
    <g id="Automated-Recruitment-Solutions-" stroke="none" stroke-width="1" fill="none" fill-rule="evenodd" transform="translate(-828.000000, -617.000000)">
        <g id="Group-15" transform="translate(828.000000, 617.000000)" fill="#FFFFFF" fill-rule="nonzero">
            <g id="Group-18">
                <g id="Group-6">
                    <path d="M25.826087,9.91666667 C24.7108696,7.7 22.95,6.125 21.0130435,5.6 C19.6630435,5.27916667 18.401087,5.45416667 17.3152174,6.125 C16.4641304,6.41666667 15.5836957,6.59166667 14.673913,6.67916667 L14.673913,4.92916667 C14.673913,4.40416667 14.7913043,3.15 15.8478261,3.15 C16.9336957,3.15 18.1956522,2.7125 18.1956522,0.670833333 L18.1956522,0.0875 L17.0217391,0.0875 L17.0217391,0.670833333 C17.0217391,1.77916667 16.6108696,1.98333333 15.8478261,1.98333333 C14.4097826,1.98333333 13.5,3.15 13.5,4.92916667 L13.5,6.70833333 C12.2673913,6.67916667 11.0054348,6.44583333 9.83152174,5.97916667 C8.74565217,5.27916667 7.45434783,5.075 6.10434783,5.45416667 C4.13804348,5.97916667 2.34782609,7.58333333 1.20326087,9.85833333 C-0.763043478,13.7375 -0.117391304,18.375 2.61195652,20.1833333 C3.375,20.6791667 4.19673913,20.9416667 5.10652174,20.9416667 C5.5173913,20.9416667 5.9576087,20.8833333 6.39782609,20.7666667 C8.30543478,20.2708333 10.0663043,18.725 11.2402174,16.5666667 C12.7663043,15.925 14.4978261,15.925 16.023913,16.5083333 C17.1684783,18.6375 18.9,20.125 20.7782609,20.6208333 C22.1282609,20.9708333 23.3902174,20.7666667 24.476087,20.0375 C27.1173913,18.2875 27.7336957,13.7375 25.826087,9.91666667 Z M23.7717391,19.075 C22.9793478,19.6 22.0108696,19.7458333 21.0130435,19.4833333 C19.4282609,19.075 17.9315217,17.7333333 16.9630435,15.8666667 C16.875,15.6916667 16.698913,15.5458333 16.4934783,15.4583333 L16.376087,15.4291667 C14.5271739,14.7 12.4141304,14.7583333 10.5945652,15.5458333 C10.4184783,15.6333333 10.2717391,15.7791667 10.1543478,15.9541667 C9.15652174,17.85 7.63043478,19.25 6.01630435,19.6583333 C4.98913043,19.9208333 4.02065217,19.775 3.19891304,19.2208333 C0.939130435,17.7333333 0.498913043,13.7666667 2.20108696,10.3833333 C3.16956522,8.42916667 4.725,7.02916667 6.36847826,6.59166667 C6.72065217,6.50416667 7.04347826,6.44583333 7.36630435,6.44583333 C8.04130435,6.44583333 8.6576087,6.62083333 9.21521739,7 L9.3326087,7.05833333 C12.0326087,8.10833333 14.9673913,8.16666667 17.6967391,7.23333333 L17.8434783,7.175 L17.9021739,7.14583333 C18.723913,6.62083333 19.6630435,6.475 20.6902174,6.7375 C22.275,7.14583333 23.801087,8.54583333 24.7695652,10.4416667 C26.4423913,13.7375 26.0021739,17.6166667 23.7717391,19.075 Z" id="Shape"></path>
                    <path d="M20.25,9.7125 C18.7826087,9.7125 17.6086957,10.8791667 17.6086957,12.3375 C17.6086957,13.7958333 18.7826087,14.9625 20.25,14.9625 C21.7173913,14.9625 22.8913043,13.7958333 22.8913043,12.3375 C22.8913043,10.8791667 21.7173913,9.7125 20.25,9.7125 Z M20.25,13.7958333 C19.4282609,13.7958333 18.7826087,13.1541667 18.7826087,12.3375 C18.7826087,11.5208333 19.4282609,10.8791667 20.25,10.8791667 C21.0717391,10.8791667 21.7173913,11.5208333 21.7173913,12.3375 C21.7173913,13.1541667 21.0717391,13.7958333 20.25,13.7958333 Z" id="Shape"></path>
                    <polygon id="Shape" points="7.04347826 10.0625 5.86956522 10.0625 5.86956522 11.8125 4.10869565 11.8125 4.10869565 12.9791667 5.86956522 12.9791667 5.86956522 14.7291667 7.04347826 14.7291667 7.04347826 12.9791667 8.80434783 12.9791667 8.80434783 11.8125 7.04347826 11.8125"></polygon>
                </g>
            </g>
        </g>
    </g>
</svg>