<?xml version="1.0" encoding="UTF-8" standalone="no"?>
<svg width="29px" height="28px" viewBox="0 0 29 28" version="1.1" xmlns="http://www.w3.org/2000/svg" xmlns:xlink="http://www.w3.org/1999/xlink">
    <!-- Generator: Sketch 48.2 (47327) - http://www.bohemiancoding.com/sketch -->
    <title>noun_Medal_2373845</title>
    <desc>Created with Sketch.</desc>
    <defs></defs>
    <g id="Talent-Acquisition" stroke="none" stroke-width="1" fill="none" fill-rule="evenodd" transform="translate(-824.000000, -596.000000)">
        <g id="noun_Medal_2373845" transform="translate(824.000000, 596.000000)" fill="#FFFFFF" fill-rule="nonzero">
            <g id="Group-6">
                <g id="Group-8">
                    <path d="M18.57032,18.4264223 L15.7225537,17.990993 L14.4464321,15.2941406 C14.3635816,15.1143176 14.1895591,15 13.9986701,15 C13.8077812,15 13.6337587,15.1143176 13.5509081,15.2941406 L12.2747865,17.990993 L9.42702027,18.4264223 C9.23815623,18.4534942 9.08119032,18.5920944 9.02403449,18.782257 C8.96616846,18.9706586 9.01465431,19.1770774 9.14940784,19.316009 L11.2135906,21.4182429 L10.72553,24.3866534 C10.6940174,24.5826544 10.7711837,24.7804394 10.9248215,24.8974574 C11.0784593,25.0144753 11.2821603,25.0306125 11.4509044,24.9391335 L13.9986701,23.5345229 L16.5464358,24.9391335 C16.6189259,24.9767882 16.698364,24.9975544 16.779272,25 C16.885538,24.9980894 16.9886858,24.9621371 17.0747949,24.8969952 C17.2291718,24.7809094 17.305855,24.5822717 17.2718102,24.3866534 L16.7882273,21.4182429 L18.8479324,19.316009 C18.9866175,19.1794444 19.0357047,18.9704655 18.9733057,18.782257 C18.9161499,18.5920944 18.759184,18.4534942 18.57032,18.4264223 Z M15.8837481,20.8610807 C15.761768,20.9807375 15.7075793,21.1578082 15.7404642,21.3292843 L16.0986738,23.5251589 L14.2494168,22.485747 C14.1087891,22.410707 13.9422825,22.410707 13.8016548,22.485747 L11.9165769,23.5204768 L12.2792641,21.3246022 C12.3076223,21.1525446 12.252226,20.9770134 12.1315026,20.8563987 L10.6091119,19.3019629 L12.7180708,18.9835845 C12.8803209,18.9577995 13.0205329,18.8513305 13.0941909,18.6979804 L14.0344911,16.6987513 L14.9792689,18.6979804 C15.0504529,18.8535064 15.1919257,18.9609328 15.3553889,18.9835845 L17.4598702,19.3019629 L15.8837481,20.8610807 Z" id="Shape"></path>
                    <path d="M29,0.25063491 C28.9086542,0.0911152297 28.731581,-0.0056628377 28.5418874,0.000256883815 L21.0013542,0.000256883815 C20.8133945,-0.00359481374 20.6380319,0.0905668696 20.5432417,0.246242313 L14.7710231,9.87042221 L14.3129105,9.87042221 L8.52694851,0.246242313 C8.43215825,0.0905668696 8.25679562,-0.00359481374 8.06883592,0.000256883815 L0.528302751,0.000256883815 C0.33860918,-0.0056628377 0.161535929,0.0911152297 0.0701901642,0.25063491 C-0.0233967214,0.402349386 -0.0233967214,0.590891291 0.0701901642,0.742605767 L7.46412731,12.6728991 C3.9317768,16.2123738 3.97266847,21.8028168 7.5564484,25.2944361 C11.1402283,28.7860554 16.9692149,28.9145405 20.7165448,25.5845169 C24.4638747,22.2544932 24.7726452,16.6717576 21.4136556,12.9803808 L29,0.25063491 Z M1.42620342,0.984198599 L7.78938725,0.984198599 L13.167629,9.92313338 C11.3486505,10.1295519 9.63218899,10.8410117 8.22917533,11.9700836 L1.42620342,0.984198599 Z M22.7101142,18.9191719 C22.7198953,22.5228338 20.2390383,25.6968571 16.6290427,26.6993315 C13.019047,27.7018058 9.15314616,26.2902394 7.15295449,23.2393027 C5.15276283,20.188366 5.50211315,16.23606 8.00928129,13.5514185 C8.24586564,13.3011398 8.4966823,13.063578 8.76058593,12.8398177 C10.1470401,11.6816287 11.891652,10.9918239 13.7265264,10.8763269 C13.8777035,10.8763269 14.0334618,10.8763269 14.184639,10.8763269 L14.2854237,10.8763269 C14.4961555,10.8763269 14.7068873,10.8763269 14.913038,10.8982899 C15.0504717,10.8982899 15.1924866,10.9202529 15.3299204,10.9378233 C17.1401025,11.1476887 18.8291993,11.9189195 20.1401026,13.1341217 C20.3978604,13.3725262 20.6396167,13.6263404 20.8639205,13.894041 C22.0575093,15.3189758 22.7087347,17.091538 22.7101142,18.9191719 Z M20.6760943,12.2336394 C19.338665,11.051269 17.6727563,10.2655616 15.8796555,9.97145194 L21.2945463,0.984198599 L27.6577301,0.984198599 L20.6760943,12.2336394 Z" id="Shape"></path>
                </g>
            </g>
        </g>
    </g>
</svg>