<?xml version="1.0" encoding="UTF-8" standalone="no"?>
<svg width="27px" height="27px" viewBox="0 0 27 27" version="1.1" xmlns="http://www.w3.org/2000/svg" xmlns:xlink="http://www.w3.org/1999/xlink">
    <!-- Generator: Sketch 48.2 (47327) - http://www.bohemiancoding.com/sketch -->
    <title>Group 13</title>
    <desc>Created with Sketch.</desc>
    <defs></defs>
    <g id="Automated-Recruitment-Solutions-" stroke="none" stroke-width="1" fill="none" fill-rule="evenodd" transform="translate(-828.000000, -752.000000)">
        <g id="Group-13" transform="translate(828.000000, 752.000000)" fill="#FFFFFF" fill-rule="nonzero">
            <g id="Group-20">
                <g id="Group-8">
                    <path d="M21.5930409,26.9950685 C21.5176772,26.995446 21.4434265,26.9768614 21.3771065,26.9410212 L13.4955014,22.5992193 L5.64988526,26.9410212 C5.4985719,27.02726 5.31113989,27.0183374 5.16868205,26.9181137 C5.02622422,26.8178901 4.95432338,26.6443636 4.98408756,26.472611 L6.49562828,17.248534 L0.125563826,10.7178154 C0.00968538186,10.5971334 -0.0297788364,10.4220633 0.0230961459,10.2632511 C0.0759711282,10.1044389 0.212460693,9.98808935 0.377487279,9.96115288 L9.15881907,8.61897761 L13.0906244,0.241642066 C13.173023,0.0925397015 13.3297982,0 13.5,0 C13.6702018,0 13.826977,0.0925397015 13.9093756,0.241642066 L17.8411809,8.61897761 L26.6225127,9.96115288 C26.7875393,9.98808935 26.9240289,10.1044389 26.9769039,10.2632511 C27.0297788,10.4220633 26.9903146,10.5971334 26.8744362,10.7178154 L20.513369,17.248534 L22.0159124,26.472611 C22.0365801,26.5993742 22.0022079,26.7289414 21.9214389,26.8287314 C21.84067,26.9285213 21.721189,26.9890398 21.5930409,26.9950685 Z M13.4955014,21.5903359 C13.5708651,21.5899584 13.6451158,21.608543 13.7114358,21.6443832 L20.9632323,25.6619011 L19.568656,17.1224236 C19.5465942,16.9805914 19.5933792,16.8367249 19.6946178,16.7350844 L25.6058216,10.672776 L17.4542985,9.4296875 C17.3053733,9.40815111 17.177064,9.3134958 17.1124024,9.17746665 L13.4955014,1.48473057 L9.8965949,9.2134982 C9.8319333,9.34952735 9.70362399,9.44418266 9.55469878,9.46571906 L1.38518109,10.7088076 L7.29638497,16.771116 C7.39762351,16.8727565 7.44440853,17.016623 7.4223467,17.1584551 L6.02777044,25.6979327 L13.279567,21.6804148 C13.3423517,21.6318496 13.4168485,21.6007726 13.4955014,21.5903359 Z" id="Shape"></path>
                </g>
            </g>
        </g>
    </g>
</svg>