<?xml version="1.0" encoding="UTF-8" standalone="no"?>
<svg width="27px" height="24px" viewBox="0 0 27 24" version="1.1" xmlns="http://www.w3.org/2000/svg" xmlns:xlink="http://www.w3.org/1999/xlink">
    <!-- Generator: Sketch 48.2 (47327) - http://www.bohemiancoding.com/sketch -->
    <title>noun_job_2114346</title>
    <desc>Created with Sketch.</desc>
    <defs></defs>
    <g id="Talent-Acquisition" stroke="none" stroke-width="1" fill="none" fill-rule="evenodd" transform="translate(-828.000000, -665.000000)">
        <g id="noun_job_2114346" transform="translate(828.000000, 665.000000)" fill="#FFFFFF" fill-rule="nonzero">
            <g id="Group-7">
                <g id="Group-10">
                    <path d="M26.9855389,5.36758671 C26.9855389,4.58508068 26.3478107,3.94855247 25.5639956,3.94855247 L17.9742328,3.94855247 L17.9742328,1.97083591 C17.9742328,0.884096906 17.0885218,0 15.9999647,0 L11.0000352,0 C9.9114782,0 9.02576713,0.884096906 9.02576713,1.97083591 L9.02576713,3.94855247 L1.43600436,3.94855247 C0.652189263,3.94855247 0.0144610528,4.58508065 0.0144610528,5.36637248 L1.01373287e-06,12.2570128 C-0.000404395766,12.4692338 0.120816642,12.6628366 0.312040509,12.7553881 C0.625228701,12.9070324 0.947707795,13.0475799 1.27180858,13.1861375 L1.27180858,22.5812356 C1.27180858,23.3636067 1.90940162,24 2.69321674,24 L24.306648,24 C25.0904631,24 25.7281914,23.3636067 25.7281914,22.5812356 L25.7281914,13.0456574 C26.0598262,12.8930687 26.3864102,12.7347968 26.7045817,12.5673169 C26.886616,12.4715273 27.0004044,12.2827815 26.9999989,12.0773062 L26.9855389,5.36758671 Z M10.1328384,1.97083588 C10.1328384,1.49350719 10.521908,1.1052223 11.0000352,1.1052223 L15.9999648,1.1052223 C16.4699836,1.1052223 16.8671616,1.50160208 16.8671616,1.97083588 L16.8671616,3.94855244 L10.1328384,3.94855244 L10.1328384,1.97083588 Z M24.6211201,22.5812356 C24.6211201,22.7482602 24.4742223,22.8947777 24.306648,22.8947777 L2.69321677,22.8947777 C2.52280454,22.8947777 2.37887988,22.7512283 2.37887988,22.5812356 L2.37887988,13.6242903 C4.932563,14.5657429 7.78853863,15.129923 10.9062477,15.3001349 L10.9062477,16.1352746 C10.9062477,16.704885 11.3703203,17.1681826 11.9408836,17.1681826 L15.0591163,17.1681826 C15.6296797,17.1681826 16.0937523,16.704885 16.0937523,16.1352746 L16.0937523,15.2907752 C19.2520035,15.1017426 22.1090096,14.5068694 24.6211201,13.5172859 L24.6211201,22.5812356 Z M12.013319,16.0629602 L12.013319,14.072022 L14.986681,14.072022 L14.986681,16.0629602 L12.013319,16.0629602 Z M16.0937523,14.1795829 L16.0937523,13.9998426 C16.0937523,13.4302322 15.6296797,12.9667997 15.0591163,12.9667997 L11.9408836,12.9667997 C11.3703203,12.9667997 10.9062477,13.4302322 10.9062477,13.9998426 L10.9062477,14.1925516 C7.22890478,13.9854067 3.93368863,13.2203047 1.10774801,11.9092023 L1.12153235,5.36758668 C1.12153235,5.19745906 1.26559216,5.05377477 1.43600438,5.05377477 L25.5639956,5.05377477 C25.7344079,5.05377477 25.8784677,5.19745906 25.8784677,5.3688009 L25.892252,11.7421777 C23.1342532,13.1325763 19.8385303,13.9479678 16.0937523,14.1795829 Z" id="Shape"></path>
                </g>
            </g>
        </g>
    </g>
</svg>