<?xml version="1.0" encoding="UTF-8" standalone="no"?>
<svg width="25px" height="26px" viewBox="0 0 25 26" version="1.1" xmlns="http://www.w3.org/2000/svg" xmlns:xlink="http://www.w3.org/1999/xlink">
    <!-- Generator: Sketch 48.2 (47327) - http://www.bohemiancoding.com/sketch -->
    <title>Group 12</title>
    <desc>Created with Sketch.</desc>
    <defs></defs>
    <g id="Automated-Recruitment-Solutions-" stroke="none" stroke-width="1" fill="none" fill-rule="evenodd" transform="translate(-829.000000, -684.000000)">
        <g id="Group-12" transform="translate(829.000000, 684.000000)" fill="#FFFFFF" fill-rule="nonzero">
            <g id="Group-16">
                <g id="Group-19">
                    <g id="Group-7">
                        <path d="M10.6829107,17.0060525 C11.3315714,17.7047336 12.11425,18.1360798 12.8531726,18.2226812 C13.6100119,18.2969402 14.4093274,18.040152 15.2930387,17.0263386 C15.5668929,16.712176 15.8669286,16.3484421 16.3715952,16.1746795 C16.8762589,16.0009231 17.4826845,16.1087649 18.1275268,16.4653259 C19.357747,17.4254661 20.6264702,18.3978478 21.8366786,19.3852574 C22.4135982,19.9781951 22.5620982,20.7591464 22.3759554,21.3724374 C22.1898125,21.9857285 21.790997,22.4502628 21.4223482,22.8391739 C19.3671369,25.0402054 16.9327054,26.1038562 14.543372,25.7320165 C12.2353423,25.3213602 10.0018839,23.6599266 7.52623512,21.1155421 C6.46210714,20.021872 5.63308631,19.1698306 4.57995536,18.0874628 C2.10430655,15.5430784 0.487755952,13.2476087 0.0881964286,10.8754941 C-0.386875,7.94180706 1.12952083,5.55386 2.902875,3.80552518 C3.28128274,3.42664706 3.73326786,3.01675553 4.32999107,2.82544141 C4.92671429,2.63413035 5.68656548,2.78675035 6.26348512,3.37969106 C7.22422321,4.62350047 8.17033631,5.92745553 9.10453869,7.19182635 C9.45146429,7.85456941 9.55639286,8.47783224 9.38732738,8.99651082 C9.21826488,9.51519553 8.86435417,9.82355859 8.55867857,10.1050162 C7.57225298,11.0132605 7.32240476,11.8347748 7.39465774,12.6126275 C7.47891369,13.3720631 7.89850595,14.1765765 8.57841964,14.84314 M7.736625,15.7083099 C6.94044345,14.9133798 6.31262202,13.8937668 6.20429464,12.7275414 C6.09567857,11.5580706 6.56925893,10.2915831 7.76293155,9.19252941 C8.05368452,8.92479976 8.21202679,8.73987553 8.25615774,8.60449812 C8.2995119,8.47152188 8.31154762,8.27811247 8.06545238,7.80014682 L5.42169048,4.24485482 C5.08087202,3.89457671 4.94413095,3.90496141 4.68513393,3.98799624 C4.42611012,4.07104635 4.0698125,4.34534329 3.73810417,4.67743671 C1.60735714,6.86734635 0.937904762,8.72216188 1.2653244,10.6660228 C1.59276488,12.6098593 3.01866667,14.7525988 5.42169345,17.2223449 C6.40802381,18.2360605 7.49250595,19.350656 8.36797024,20.2504304 C10.770994,22.7201704 12.8558542,24.1856619 14.7471815,24.5221936 C16.6385238,24.8587009 18.4432292,24.1706706 20.5739792,21.9807579 C20.8971012,21.6398398 21.1639792,21.2736496 21.2447917,21.0074341 C21.3255923,20.7412492 21.3357054,20.6007115 20.994878,20.2504242 L17.535628,17.5332652 C17.0705744,17.2803402 16.8823929,17.292704 16.7530149,17.3372496 C16.6212857,17.3825845 16.4413542,17.5453292 16.180869,17.8441732 C15.1115089,19.0709816 13.8792321,19.5577108 12.7413542,19.4460821 C11.606631,19.3347501 10.6145863,18.6894699 9.8411131,17.8712101" id="Shape"></path>
                        <path d="M20.8356994,10.5083558 C21.1644405,10.5083558 21.4309375,10.2344687 21.4309375,9.89659106 C21.4309375,9.55871341 21.1644405,9.28482635 20.8356994,9.28482635 L16.9201488,9.28482635 L24.8256548,1.15025224 C25.0581101,0.911358118 25.0581161,0.528882824 24.8256548,0.289988706 C24.5931935,0.051064 24.2210536,0.051064 23.9886012,0.289988706 L16.0737946,8.41495812 L16.0737946,4.39070871 C16.0737946,4.05283106 15.8073065,3.778944 15.4785565,3.778944 C15.1498065,3.778944 14.8833185,4.05283106 14.8833185,4.39070871 L14.8833185,9.89659106 C14.8833185,10.2344687 15.1498155,10.5083558 15.4785565,10.5083558 L20.8356994,10.5083558 Z" id="Shape"></path>
                    </g>
                </g>
            </g>
        </g>
    </g>
</svg>