<?xml version="1.0" encoding="UTF-8" standalone="no"?>
<svg width="20px" height="24px" viewBox="0 0 20 24" version="1.1" xmlns="http://www.w3.org/2000/svg" xmlns:xlink="http://www.w3.org/1999/xlink">
    <!-- Generator: Sketch 48.2 (47327) - http://www.bohemiancoding.com/sketch -->
    <title>noun_Document_150024</title>
    <desc>Created with Sketch.</desc>
    <defs></defs>
    <g id="Skill-Development-&amp;-Evaluation-(SKIDE)" stroke="none" stroke-width="1" fill="none" fill-rule="evenodd" transform="translate(-830.000000, -666.000000)">
        <g id="noun_Document_150024" transform="translate(830.000000, 666.000000)" fill="#FFFFFF" fill-rule="nonzero">
            <g id="Group-6">
                <g id="Group-11">
                    <rect id="Rectangle-path" x="4" y="13" width="11" height="1"></rect>
                    <rect id="Rectangle-path" x="4" y="11" width="11" height="1"></rect>
                    <rect id="Rectangle-path" x="4" y="8" width="7" height="1"></rect>
                    <rect id="Rectangle-path" x="4" y="15" width="11" height="1"></rect>
                    <rect id="Rectangle-path" x="4" y="17" width="11" height="1"></rect>
                    <path d="M19.4916667,6.06327273 L13.5877778,0.459818182 C13.2766667,0.164727273 12.8616667,0 12.4294444,0 L1.66666667,0 C0.746111111,0 0,0.732545455 0,1.63636364 L0,22.3636364 C0,23.2674545 0.746111111,24 1.66666667,24 L18.3333333,24 C19.2538889,24 20,23.2674545 20,22.3636364 L20,7.23981818 C20,6.79581818 19.8166667,6.37145455 19.4916667,6.06327273 Z M13.6588889,2.04436364 L17.8266667,6 L13.6588889,6 L13.6588889,2.04436364 Z M18.8888889,22.3636364 C18.8888889,22.6641818 18.6394444,22.9090909 18.3333333,22.9090909 L1.66666667,22.9090909 C1.36055556,22.9090909 1.11111111,22.6641818 1.11111111,22.3636364 L1.11111111,1.63636364 C1.11111111,1.33581818 1.36055556,1.09090909 1.66666667,1.09090909 L12.4294444,1.09090909 C12.4705556,1.09090909 12.5083333,1.10509091 12.5477778,1.11327273 L12.5477778,6 C12.5477778,6.60163636 13.0461111,7.09090909 13.6588889,7.09090909 L18.8577778,7.09090909 C18.8722222,7.13945455 18.8888889,7.188 18.8888889,7.23981818 L18.8888889,22.3636364 Z" id="Shape"></path>
                </g>
            </g>
        </g>
    </g>
</svg>