<?xml version="1.0" encoding="UTF-8" standalone="no"?>
<svg width="27px" height="27px" viewBox="0 0 27 27" version="1.1" xmlns="http://www.w3.org/2000/svg" xmlns:xlink="http://www.w3.org/1999/xlink">
    <!-- Generator: Sketch 48.2 (47327) - http://www.bohemiancoding.com/sketch -->
    <title>Group 14</title>
    <desc>Created with Sketch.</desc>
    <defs></defs>
    <g id="Automated-Recruitment-Solutions-" stroke="none" stroke-width="1" fill="none" fill-rule="evenodd" transform="translate(-828.000000, -547.000000)">
        <g id="Group-5" transform="translate(828.000000, 547.000000)" fill-rule="nonzero">
            <g id="Group-14">
                <g id="Group-17">
                    <path d="M13.5,3.24928125 C7.8384375,3.24928125 3.24928125,7.8384375 3.24928125,13.5 C3.24928125,19.1615625 7.8384375,23.7507187 13.5,23.7507187 C19.1615625,23.7507187 23.7507187,19.1615625 23.7507187,13.5 C23.7507187,7.8384375 19.1615625,3.24928125 13.5,3.24928125 Z M13.5,22.9069687 C8.312625,22.9069687 4.09303125,18.687375 4.09303125,13.5 C4.09303125,8.312625 8.312625,4.09303125 13.5,4.09303125 C18.687375,4.09303125 22.9069687,8.312625 22.9069687,13.5 C22.9069687,18.687375 18.687375,22.9069687 13.5,22.9069687 Z" id="Shape" fill="#FFFFFF"></path>
                    <path d="M13.5,0 C6.04378125,0 0,6.04378125 0,13.5 C0,20.9562188 6.04378125,27 13.5,27 C20.9562188,27 27,20.9562188 27,13.5 C27,6.04378125 20.9562188,0 13.5,0 Z M13.5,26.15625 C6.52134375,26.15625 0.84375,20.4786563 0.84375,13.5 C0.84375,6.52134375 6.52134375,0.84375 13.5,0.84375 C20.4786563,0.84375 26.15625,6.52134375 26.15625,13.5 C26.15625,20.4786563 20.4786563,26.15625 13.5,26.15625 Z" id="Shape" fill="#FFFFFF"></path>
                    <path d="M18.0655312,13.4451563 C15.2355937,11.8116563 12.4048125,10.1781563 9.574875,8.54465625 C9.57403125,8.54465625 9.5731875,8.5438125 9.57234375,8.5438125 C9.35634375,8.38940625 8.845875,8.34975 8.845875,8.50921875 C8.845875,11.7762188 8.845875,15.042375 8.845875,18.309375 C8.845875,18.5515313 9.4348125,18.6519375 9.59596875,18.559125 C12.4259062,16.925625 15.2566875,15.292125 18.086625,13.658625 C18.1920937,13.597875 18.167625,13.5042188 18.0655312,13.4451563 Z M13.1650312,15.78825 C11.9998125,16.4607188 10.8354375,17.1331875 9.67021875,17.8056563 C9.67021875,14.8947188 9.67021875,11.9837813 9.67021875,9.07284375 C10.7865,9.716625 11.9027812,10.36125 13.0190625,11.005875 C13.5135,11.2910625 17.4099375,13.2882188 17.4040312,13.446 C17.3964375,13.6324688 13.638375,15.514875 13.1650312,15.78825 Z" id="Shape" fill="#000000"></path>
                    <path d="M5.88684375,6.49265625 C-0.55434375,13.2924375 5.369625,24.1464375 14.313375,23.6115 C19.6602188,23.2917188 23.6730938,18.8924063 23.8258125,13.6122188 C23.8258125,13.6029375 23.8182188,13.5945 23.8165313,13.5852188 C23.8182188,13.577625 23.8249688,13.5734063 23.824125,13.5649688 C23.5659375,4.62121875 12.21075,-0.1839375 5.88684375,6.49265625 Z M15.43725,22.973625 C9.466875,24.3624375 3.95296875,19.551375 3.95634375,13.5885938 C3.958875,8.8813125 7.38871875,4.721625 12.0462188,3.90825 C17.992125,2.8704375 22.8369375,7.63846875 23.0191875,13.3801875 C22.8808125,17.8925625 19.9344375,21.9282188 15.43725,22.973625 Z" id="Shape" fill="#FFFFFF"></path>
                    <path d="M3.628125,4.35459375 C-0.55603125,8.71340625 -1.198125,15.5950313 2.106,20.6533125 C4.97390625,25.0433438 10.2583125,27.3062813 15.4212187,26.6025938 C22.0269375,25.7014688 26.854875,20.0989688 27,13.4865 C26.7409687,1.6520625 11.88,-4.24153125 3.628125,4.35459375 Z M13.4881875,26.3950313 C6.4918125,26.41275 0.81,20.37825 0.81,13.4865 C0.81,6.58884375 6.48675,0.570375 13.4780625,0.55265625 C20.5765312,0.53409375 26.0052187,6.571125 26.15625,13.4611875 C26.0052187,20.3588438 20.5832812,26.3764688 13.4881875,26.3950313 Z" id="Shape" fill="#FFFFFF"></path>
                    <path d="M9.12346875,18.5540625 L17.8765313,13.5 L9.12346875,8.4459375 C9.12346875,8.4459375 9.12346875,18.5540625 9.12346875,18.5540625 Z M9.54534375,9.176625 L17.0327813,13.5 L9.54534375,17.823375 C9.54534375,17.823375 9.54534375,9.176625 9.54534375,9.176625 Z" id="Shape" fill="#FFFFFF"></path>
                    <path d="M13.5,3.24928125 C7.8384375,3.24928125 3.24928125,7.8384375 3.24928125,13.5 C3.24928125,19.1615625 7.8384375,23.7507187 13.5,23.7507187 C19.1615625,23.7507187 23.7507187,19.1615625 23.7507187,13.5 C23.7507187,7.8384375 19.1615625,3.24928125 13.5,3.24928125 Z M13.5,23.3288437 C8.08059375,23.3288437 3.67115625,18.9194062 3.67115625,13.5 C3.67115625,8.08059375 8.08059375,3.67115625 13.5,3.67115625 C18.9194062,3.67115625 23.3288437,8.08059375 23.3288437,13.5 C23.3288437,18.9194062 18.9194062,23.3288437 13.5,23.3288437 Z" id="Shape" fill="#000000"></path>
                    <path d="M13.5,0 C6.04378125,0 0,6.04378125 0,13.5 C0,20.9562188 6.04378125,27 13.5,27 C20.9562188,27 27,20.9562188 27,13.5 C27,6.04378125 20.9562188,0 13.5,0 Z M13.5,26.578125 C6.28846875,26.578125 0.421875,20.7115313 0.421875,13.5 C0.421875,6.28846875 6.28846875,0.421875 13.5,0.421875 C20.7115313,0.421875 26.578125,6.28846875 26.578125,13.5 C26.578125,20.7115313 20.7115313,26.578125 13.5,26.578125 Z" id="Shape" fill="#FFFFFF"></path>
                </g>
            </g>
        </g>
    </g>
</svg>